<svg xmlns="http://www.w3.org/2000/svg" version="1.1" xmlns:xlink="http://www.w3.org/1999/xlink" xmlns:svgjs="http://svgjs.dev/svgjs" width="2000" height="348" viewBox="0 0 2000 348"><g transform="matrix(1,0,0,1,-1.2039139265499443,-0.19644843763947506)"><svg viewBox="0 0 396 69" data-background-color="#ffffff" preserveAspectRatio="xMidYMid meet" height="348" width="2000" xmlns="http://www.w3.org/2000/svg" xmlns:xlink="http://www.w3.org/1999/xlink"><g id="tight-bounds" transform="matrix(1,0,0,1,0.24162449235734584,0.038950983325065636)"><svg viewBox="0 0 395.52 68.92209803334984" height="68.92209803334984" width="395.52"><g><svg viewBox="0 0 395.52 68.92209803334984" height="68.92209803334984" width="395.52"><g><svg viewBox="0 0 395.52 68.92209803334984" height="68.92209803334984" width="395.52"><g id="textblocktransform"><svg viewBox="0 0 395.52 68.92209803334984" height="68.92209803334984" width="395.52" id="textblock"><g><svg viewBox="0 0 395.52 68.92209803334984" height="68.92209803334984" width="395.52"><g transform="matrix(1,0,0,1,0,0)"><svg width="395.52" viewBox="1.15 -37 212.79 37.3" height="68.92209803334984" data-palette-color="#252422"><g class="wordmark-text-0" data-fill-palette-color="primary" id="text-0"><path d="M18.85-11.55L11.95-11.55 11.95-5.3Q11.95-2.7 10.58-1.35 9.2 0 6.95 0L6.95 0 6.9 0Q4.45 0 3.03-1.35 1.6-2.7 1.6-5.3L1.6-5.3 1.6-12.35Q1.6-17.65 3.2-20.4 4.8-23.15 7.25-24.35L7.25-24.35 7-25.3 6.15-25.3Q3.85-25.3 2.53-26.78 1.2-28.25 1.15-30.8L1.15-30.8Q1.1-33.3 2.48-34.85 3.85-36.4 6.15-36.4L6.15-36.4 19.3-36.4Q24.35-36.4 27.53-33.38 30.7-30.35 30.7-23.85L30.7-23.85Q30.7-19.15 29.05-16.45 27.4-13.75 24.7-12.65 22-11.55 18.85-11.55L18.85-11.55ZM11.3-25.1L11.3-21.2Q11.3-20.1 11.73-19.75 12.15-19.4 13.25-19.4L13.25-19.4 17.9-19.4Q20-19.4 20.95-20.38 21.9-21.35 21.9-23.15L21.9-23.15Q21.9-24.95 20.95-25.9 20-26.85 17.9-26.85L17.9-26.85 13.25-26.85Q12.15-26.85 11.73-26.55 11.3-26.25 11.3-25.1L11.3-25.1ZM32.6-31.95L32.6-31.95Q32.6-34.1 33.92-35.43 35.25-36.75 37.6-36.75L37.6-36.75Q40.1-36.75 41.32-35.45 42.55-34.15 42.55-32L42.55-32Q42.55-29.9 41.32-28.63 40.1-27.35 37.6-27.35L37.6-27.35Q35.15-27.35 33.87-28.63 32.6-29.9 32.6-31.95ZM37.6 0L37.6 0Q35.25 0 34.1-1.3 32.95-2.6 32.95-4.55L32.95-4.55 32.95-21.65Q32.95-23.8 34.1-25.05 35.25-26.3 37.6-26.3L37.6-26.3Q39.95-26.3 41.12-25.05 42.3-23.8 42.3-21.75L42.3-21.75 42.3-4.55Q42.3-2.6 41.07-1.3 39.85 0 37.6 0ZM57.9 0.15L57.9 0.15Q54 0.15 51-1.48 48-3.1 46.3-6.1 44.6-9.1 44.6-13.15L44.6-13.15Q44.6-17.2 46.3-20.2 48-23.2 51.02-24.85 54.05-26.5 58-26.5L58-26.5Q61.1-26.5 63.47-25.85 65.85-25.2 67.22-23.9 68.6-22.6 68.6-20.65L68.6-20.65Q68.6-18.3 67.4-16.98 66.2-15.65 63.95-15.65L63.95-15.65Q62.45-15.65 60.97-16.1 59.5-16.55 57.2-16.55L57.2-16.55Q55.3-16.55 54-15.95 52.7-15.35 52.7-13.75L52.7-13.75Q52.7-12.1 54-11.38 55.3-10.65 57.2-10.65L57.2-10.65Q58.75-10.65 59.8-10.95 60.85-11.25 61.8-11.55 62.75-11.85 63.95-11.85L63.95-11.85Q66.5-11.85 67.72-10.38 68.95-8.9 68.95-6.6L68.95-6.6Q68.95-4.65 67.5-3.13 66.05-1.6 63.55-0.73 61.05 0.15 57.9 0.15ZM84.34 0.3L83.89 0.3Q79.89 0.3 76.94-2.02 73.99-4.35 72.39-8.43 70.79-12.5 70.79-17.65L70.79-17.65Q70.79-22.45 72.22-26.08 73.64-29.7 76.12-32.13 78.59-34.55 81.87-35.77 85.14-37 88.79-37L88.79-37Q95.49-37 98.72-35.13 101.94-33.25 101.94-30.3L101.94-30.3Q101.94-28 100.77-26.25 99.59-24.5 97.24-24.5L97.24-24.5Q95.64-24.5 94.22-24.8 92.79-25.1 91.32-25.38 89.84-25.65 88.04-25.65L88.04-25.65Q84.09-25.65 82.37-23.4 80.64-21.15 80.64-17.75L80.64-17.75Q80.64-15 81.77-13.25 82.89-11.5 84.77-10.68 86.64-9.85 88.94-9.85L88.94-9.85Q90.84-9.85 92.49-10.7 94.14-11.55 94.59-13.85L94.59-13.85 92.14-13.85Q90.39-13.85 89.44-14.93 88.49-16 88.49-17.7L88.49-17.7Q88.49-19.4 89.44-20.45 90.39-21.5 92.14-21.5L92.14-21.5 98.14-21.5Q101.39-21.5 102.72-19.78 104.04-18.05 104.04-14.65L104.04-14.65 104.04-5.3Q104.04-2.7 102.64-1.35 101.24 0 98.94 0L98.94 0Q96.49 0 95.09-1.35 93.69-2.7 93.69-5.3L93.69-5.3 93.69-8.4 92.79-8.4Q92.79-3.85 90.49-1.78 88.19 0.3 84.34 0.3L84.34 0.3ZM106.09-13L106.09-13Q106.09-16.95 107.67-19.95 109.24-22.95 112.17-24.65 115.09-26.35 119.14-26.35L119.14-26.35Q122.29-26.35 124.82-25.2 127.34-24.05 128.79-22.13 130.24-20.2 130.24-17.9L130.24-17.9Q130.24-15.5 128.84-14.5 127.44-13.5 124.69-13.5L124.69-13.5 114.19-13.5Q114.19-12.2 115.22-11.35 116.24-10.5 118.69-10.5L118.69-10.5Q119.94-10.5 121.02-10.75 122.09-11 123.22-11.23 124.34-11.45 125.74-11.45L125.74-11.45Q127.74-11.45 129.04-10.03 130.34-8.6 130.34-6.1L130.34-6.1Q130.34-3.15 127.32-1.5 124.29 0.15 119.39 0.15L119.39 0.15Q115.94 0.15 112.92-1.2 109.89-2.55 107.99-5.48 106.09-8.4 106.09-13ZM114.34-15.15L122.29-15.15Q123.04-15.15 122.79-15.85L122.79-15.85Q122.59-16.55 121.59-17.3 120.59-18.05 118.69-18.05L118.69-18.05Q116.49-18.05 115.42-17.1 114.34-16.15 114.34-15.15L114.34-15.15ZM137.44 0L137.44 0Q135.24 0 133.91-1.33 132.59-2.65 132.59-4.6L132.59-4.6 132.59-21.15Q132.59-23.25 133.84-24.7 135.09-26.15 137.44-26.15L137.44-26.15Q139.74-26.15 140.94-24.7 142.14-23.25 142.14-21.05L142.14-21.05 142.14-18.55 143.04-18.55Q143.04-21.4 144.06-23.05 145.09-24.7 146.69-25.43 148.29-26.15 149.89-26.15L149.89-26.15Q153.74-26.15 155.54-23.38 157.34-20.6 157.34-15.5L157.34-15.5 157.34-4.6Q157.34-2.65 156.04-1.33 154.74 0 152.54 0L152.54 0Q150.29 0 148.96-1.33 147.64-2.65 147.64-4.6L147.64-4.6 147.64-13.45Q147.64-15.25 146.96-16.25 146.29-17.25 144.99-17.25L144.99-17.25Q143.49-17.25 142.81-16.15 142.14-15.05 142.14-13.35L142.14-13.35 142.14-4.6Q142.14-2.65 140.89-1.33 139.64 0 137.44 0Z" fill="#252422" data-fill-palette-color="primary"></path><path d="M171.99 0L171.99 0Q168.64-0.5 167.64-3.08 166.64-5.65 168.04-9.6L168.04-9.6 174.64-28.35Q175.54-30.95 176.71-32.8 177.89-34.65 179.66-35.65 181.44-36.65 184.09-36.65L184.09-36.65Q188.09-36.65 190.11-34.45 192.14-32.25 193.49-28.35L193.49-28.35 200.04-9.6Q201.44-5.65 200.56-3.08 199.69-0.5 196.29 0L196.29 0Q193.54 0.35 191.51-0.65 189.49-1.65 189.09-3.9L189.09-3.9Q188.79-5.4 189.01-6.4 189.24-7.4 189.44-8L189.44-8Q189.59-8.5 189.46-8.97 189.34-9.45 188.69-9.45L188.69-9.45 179.39-9.45Q178.74-9.45 178.61-8.97 178.49-8.5 178.69-8L178.69-8Q178.89-7.4 179.09-6.4 179.29-5.4 179.04-3.9L179.04-3.9Q178.64-1.65 176.69-0.65 174.74 0.35 171.99 0ZM180.44-16.45L187.74-16.45 185.14-24.6Q185.04-25.1 184.81-25.38 184.59-25.65 184.09-25.65L184.09-25.65Q183.59-25.65 183.36-25.38 183.14-25.1 182.99-24.6L182.99-24.6 180.44-16.45ZM208.59 0.1L208.59 0.1Q206.29 0.1 204.84-1.3 203.39-2.7 203.39-4.85L203.39-4.85 203.39-31.3Q203.39-33.5 204.81-35 206.24-36.5 208.59-36.5L208.59-36.5Q211.09-36.5 212.51-35.02 213.94-33.55 213.94-31.4L213.94-31.4 213.94-4.85Q213.94-2.7 212.41-1.3 210.89 0.1 208.59 0.1Z" fill="#eb5e28" data-fill-palette-color="accent"></path></g></svg></g></svg></g></svg></g></svg></g></svg></g><defs></defs></svg><rect width="395.52" height="68.92209803334984" fill="none" stroke="none" visibility="hidden"></rect></g></svg></g></svg>