<svg xmlns="http://www.w3.org/2000/svg" version="1.1" xmlns:xlink="http://www.w3.org/1999/xlink" xmlns:svgjs="http://svgjs.dev/svgjs" width="2000" height="1573" viewBox="0 0 2000 1573"><g transform="matrix(1,0,0,1,0.4107630313272921,0.6368421052630993)"><svg viewBox="0 0 314 247" data-background-color="#ffffff" preserveAspectRatio="xMidYMid meet" height="1573" width="2000" xmlns="http://www.w3.org/2000/svg" xmlns:xlink="http://www.w3.org/1999/xlink"><g id="tight-bounds" transform="matrix(1,0,0,1,-0.06448979591837656,-0.09999999999999432)"><svg viewBox="0 0 314.12897959183675 247.2" height="247.2" width="314.12897959183675"><g><svg viewBox="0 0 314.12897959183675 247.2" height="247.2" width="314.12897959183675"><g><svg viewBox="0 0 314.12897959183675 247.2" height="247.2" width="314.12897959183675"><g id="textblocktransform"><svg viewBox="0 0 314.12897959183675 247.2" height="247.2" width="314.12897959183675" id="textblock"><g><svg viewBox="0 0 314.12897959183675 247.2" height="247.2" width="314.12897959183675"><g transform="matrix(1,0,0,1,0,0)"><svg width="314.12897959183675" viewBox="0.8833333333333333 -36.65 46.71666666666667 36.75" height="247.2" data-palette-color="#eb5e28"><g class="wordmark-text-0" data-fill-palette-color="primary" id="text-0"><path d="M5.65 0L5.65 0Q2.3-0.5 1.3-3.08 0.3-5.65 1.7-9.6L1.7-9.6 8.3-28.35Q9.2-30.95 10.38-32.8 11.55-34.65 13.33-35.65 15.1-36.65 17.75-36.65L17.75-36.65Q21.75-36.65 23.78-34.45 25.8-32.25 27.15-28.35L27.15-28.35 33.7-9.6Q35.1-5.65 34.23-3.08 33.35-0.5 29.95 0L29.95 0Q27.2 0.35 25.18-0.65 23.15-1.65 22.75-3.9L22.75-3.9Q22.45-5.4 22.68-6.4 22.9-7.4 23.1-8L23.1-8Q23.25-8.5 23.13-8.97 23-9.45 22.35-9.45L22.35-9.45 13.05-9.45Q12.4-9.45 12.28-8.97 12.15-8.5 12.35-8L12.35-8Q12.55-7.4 12.75-6.4 12.95-5.4 12.7-3.9L12.7-3.9Q12.3-1.65 10.35-0.65 8.4 0.35 5.65 0ZM14.1-16.45L21.4-16.45 18.8-24.6Q18.7-25.1 18.48-25.38 18.25-25.65 17.75-25.65L17.75-25.65Q17.25-25.65 17.03-25.38 16.8-25.1 16.65-24.6L16.65-24.6 14.1-16.45ZM42.25 0.1L42.25 0.1Q39.95 0.1 38.5-1.3 37.05-2.7 37.05-4.85L37.05-4.85 37.05-31.3Q37.05-33.5 38.47-35 39.9-36.5 42.25-36.5L42.25-36.5Q44.75-36.5 46.17-35.02 47.6-33.55 47.6-31.4L47.6-31.4 47.6-4.85Q47.6-2.7 46.07-1.3 44.55 0.1 42.25 0.1Z" fill="#eb5e28" data-fill-palette-color="primary"></path></g></svg></g></svg></g></svg></g></svg></g></svg></g><defs></defs></svg><rect width="314.12897959183675" height="247.2" fill="none" stroke="none" visibility="hidden"></rect></g></svg></g></svg>